<mxfile host="app.diagrams.net" modified="2023-04-09T15:51:57.758Z" agent="Mozilla/5.0 (Windows NT 10.0; Win64; x64) AppleWebKit/537.36 (KHTML, like Gecko) Chrome/111.0.0.0 Safari/537.36" etag="xrL8KKZ8Lfyu2BmnMi9b" version="21.1.5" type="device">
  <diagram name="Trang-1" id="hk2lNJoimPMimp4_Qf15">
    <mxGraphModel dx="1050" dy="541" grid="1" gridSize="10" guides="1" tooltips="1" connect="1" arrows="1" fold="1" page="1" pageScale="1" pageWidth="827" pageHeight="1169" math="0" shadow="0">
      <root>
        <mxCell id="0" />
        <mxCell id="1" parent="0" />
        <mxCell id="SRyWoY2yss76VLXDOrAd-53" value="" style="rounded=0;whiteSpace=wrap;html=1;" vertex="1" parent="1">
          <mxGeometry x="60" width="710" height="4450" as="geometry" />
        </mxCell>
        <mxCell id="SRyWoY2yss76VLXDOrAd-8" value="" style="rounded=0;whiteSpace=wrap;html=1;" vertex="1" parent="1">
          <mxGeometry x="60.5" y="88.94" width="360" height="398" as="geometry" />
        </mxCell>
        <mxCell id="SRyWoY2yss76VLXDOrAd-9" value="&lt;span style=&quot;font-size: 21px;&quot;&gt;&lt;b&gt;Túi&lt;/b&gt;&lt;/span&gt;" style="text;html=1;strokeColor=none;fillColor=none;align=center;verticalAlign=middle;whiteSpace=wrap;rounded=0;" vertex="1" parent="1">
          <mxGeometry x="178.5" y="246.94" width="124" height="30" as="geometry" />
        </mxCell>
        <mxCell id="SRyWoY2yss76VLXDOrAd-10" value="" style="rounded=0;whiteSpace=wrap;html=1;" vertex="1" parent="1">
          <mxGeometry x="420.5" y="88.94" width="349.5" height="398" as="geometry" />
        </mxCell>
        <mxCell id="SRyWoY2yss76VLXDOrAd-11" value="&lt;span style=&quot;font-size: 21px;&quot;&gt;&lt;b&gt;Túi&lt;/b&gt;&lt;/span&gt;" style="text;html=1;strokeColor=none;fillColor=none;align=center;verticalAlign=middle;whiteSpace=wrap;rounded=0;" vertex="1" parent="1">
          <mxGeometry x="538.5" y="246.94" width="124" height="30" as="geometry" />
        </mxCell>
        <mxCell id="SRyWoY2yss76VLXDOrAd-12" value="" style="rounded=0;whiteSpace=wrap;html=1;" vertex="1" parent="1">
          <mxGeometry x="60.5" y="536.94" width="345" height="360" as="geometry" />
        </mxCell>
        <mxCell id="SRyWoY2yss76VLXDOrAd-13" value="Text" style="text;html=1;strokeColor=none;fillColor=none;align=center;verticalAlign=middle;whiteSpace=wrap;rounded=0;" vertex="1" parent="1">
          <mxGeometry x="178.5" y="916.94" width="60" height="30" as="geometry" />
        </mxCell>
        <mxCell id="SRyWoY2yss76VLXDOrAd-14" value="" style="rounded=0;whiteSpace=wrap;html=1;" vertex="1" parent="1">
          <mxGeometry x="428" y="536.94" width="342" height="360" as="geometry" />
        </mxCell>
        <mxCell id="SRyWoY2yss76VLXDOrAd-15" value="Text" style="text;html=1;strokeColor=none;fillColor=none;align=center;verticalAlign=middle;whiteSpace=wrap;rounded=0;" vertex="1" parent="1">
          <mxGeometry x="570.5" y="916.94" width="60" height="30" as="geometry" />
        </mxCell>
        <mxCell id="SRyWoY2yss76VLXDOrAd-16" value="" style="rounded=0;whiteSpace=wrap;html=1;" vertex="1" parent="1">
          <mxGeometry x="60" y="986.94" width="345" height="360" as="geometry" />
        </mxCell>
        <mxCell id="SRyWoY2yss76VLXDOrAd-17" value="Text" style="text;html=1;strokeColor=none;fillColor=none;align=center;verticalAlign=middle;whiteSpace=wrap;rounded=0;" vertex="1" parent="1">
          <mxGeometry x="178" y="1366.94" width="60" height="30" as="geometry" />
        </mxCell>
        <mxCell id="SRyWoY2yss76VLXDOrAd-18" value="" style="rounded=0;whiteSpace=wrap;html=1;" vertex="1" parent="1">
          <mxGeometry x="427.5" y="986.94" width="342.5" height="360" as="geometry" />
        </mxCell>
        <mxCell id="SRyWoY2yss76VLXDOrAd-19" value="Text" style="text;html=1;strokeColor=none;fillColor=none;align=center;verticalAlign=middle;whiteSpace=wrap;rounded=0;" vertex="1" parent="1">
          <mxGeometry x="570" y="1366.94" width="60" height="30" as="geometry" />
        </mxCell>
        <mxCell id="SRyWoY2yss76VLXDOrAd-20" value="Text" style="text;html=1;strokeColor=none;fillColor=none;align=center;verticalAlign=middle;whiteSpace=wrap;rounded=0;fontSize=20;fontStyle=1" vertex="1" parent="1">
          <mxGeometry x="345.5" y="1476.94" width="60" height="30" as="geometry" />
        </mxCell>
        <mxCell id="SRyWoY2yss76VLXDOrAd-21" value="" style="rounded=0;whiteSpace=wrap;html=1;" vertex="1" parent="1">
          <mxGeometry x="75.5" y="1666.94" width="330" height="360" as="geometry" />
        </mxCell>
        <mxCell id="SRyWoY2yss76VLXDOrAd-22" value="" style="rounded=0;whiteSpace=wrap;html=1;" vertex="1" parent="1">
          <mxGeometry x="427.5" y="1666.94" width="330" height="360" as="geometry" />
        </mxCell>
        <mxCell id="SRyWoY2yss76VLXDOrAd-23" value="Text" style="text;html=1;strokeColor=none;fillColor=none;align=center;verticalAlign=middle;whiteSpace=wrap;rounded=0;fontStyle=1;fontSize=15;" vertex="1" parent="1">
          <mxGeometry x="105.5" y="2036.94" width="60" height="30" as="geometry" />
        </mxCell>
        <mxCell id="SRyWoY2yss76VLXDOrAd-24" value="Text" style="text;html=1;strokeColor=none;fillColor=none;align=center;verticalAlign=middle;whiteSpace=wrap;rounded=0;fontStyle=1;fontSize=15;" vertex="1" parent="1">
          <mxGeometry x="447" y="2036.94" width="60" height="30" as="geometry" />
        </mxCell>
        <mxCell id="SRyWoY2yss76VLXDOrAd-25" value="" style="rounded=0;whiteSpace=wrap;html=1;" vertex="1" parent="1">
          <mxGeometry x="75.5" y="2116.94" width="330" height="360" as="geometry" />
        </mxCell>
        <mxCell id="SRyWoY2yss76VLXDOrAd-26" value="" style="rounded=0;whiteSpace=wrap;html=1;" vertex="1" parent="1">
          <mxGeometry x="427.5" y="2116.94" width="330" height="360" as="geometry" />
        </mxCell>
        <mxCell id="SRyWoY2yss76VLXDOrAd-27" value="Text" style="text;html=1;strokeColor=none;fillColor=none;align=center;verticalAlign=middle;whiteSpace=wrap;rounded=0;fontStyle=1;fontSize=15;" vertex="1" parent="1">
          <mxGeometry x="105.5" y="2486.94" width="60" height="30" as="geometry" />
        </mxCell>
        <mxCell id="SRyWoY2yss76VLXDOrAd-28" value="Text" style="text;html=1;strokeColor=none;fillColor=none;align=center;verticalAlign=middle;whiteSpace=wrap;rounded=0;fontStyle=1;fontSize=15;" vertex="1" parent="1">
          <mxGeometry x="447" y="2486.94" width="60" height="30" as="geometry" />
        </mxCell>
        <mxCell id="SRyWoY2yss76VLXDOrAd-29" value="" style="rounded=0;whiteSpace=wrap;html=1;" vertex="1" parent="1">
          <mxGeometry x="75.5" y="2556.94" width="330" height="360" as="geometry" />
        </mxCell>
        <mxCell id="SRyWoY2yss76VLXDOrAd-30" value="" style="rounded=0;whiteSpace=wrap;html=1;" vertex="1" parent="1">
          <mxGeometry x="427.5" y="2556.94" width="330" height="360" as="geometry" />
        </mxCell>
        <mxCell id="SRyWoY2yss76VLXDOrAd-31" value="Text" style="text;html=1;strokeColor=none;fillColor=none;align=center;verticalAlign=middle;whiteSpace=wrap;rounded=0;fontStyle=1;fontSize=15;" vertex="1" parent="1">
          <mxGeometry x="105.5" y="2926.94" width="60" height="30" as="geometry" />
        </mxCell>
        <mxCell id="SRyWoY2yss76VLXDOrAd-32" value="Text" style="text;html=1;strokeColor=none;fillColor=none;align=center;verticalAlign=middle;whiteSpace=wrap;rounded=0;fontStyle=1;fontSize=15;" vertex="1" parent="1">
          <mxGeometry x="447" y="2926.94" width="60" height="30" as="geometry" />
        </mxCell>
        <mxCell id="SRyWoY2yss76VLXDOrAd-33" value="" style="rounded=0;whiteSpace=wrap;html=1;" vertex="1" parent="1">
          <mxGeometry x="75.5" y="2996.94" width="330" height="360" as="geometry" />
        </mxCell>
        <mxCell id="SRyWoY2yss76VLXDOrAd-34" value="" style="rounded=0;whiteSpace=wrap;html=1;" vertex="1" parent="1">
          <mxGeometry x="427.5" y="2996.94" width="330" height="360" as="geometry" />
        </mxCell>
        <mxCell id="SRyWoY2yss76VLXDOrAd-35" value="Text" style="text;html=1;strokeColor=none;fillColor=none;align=center;verticalAlign=middle;whiteSpace=wrap;rounded=0;fontStyle=1;fontSize=15;" vertex="1" parent="1">
          <mxGeometry x="105.5" y="3366.94" width="60" height="30" as="geometry" />
        </mxCell>
        <mxCell id="SRyWoY2yss76VLXDOrAd-36" value="Text" style="text;html=1;strokeColor=none;fillColor=none;align=center;verticalAlign=middle;whiteSpace=wrap;rounded=0;fontStyle=1;fontSize=15;" vertex="1" parent="1">
          <mxGeometry x="447" y="3366.94" width="60" height="30" as="geometry" />
        </mxCell>
        <mxCell id="SRyWoY2yss76VLXDOrAd-37" value="" style="rounded=0;whiteSpace=wrap;html=1;" vertex="1" parent="1">
          <mxGeometry x="75.5" y="3436.94" width="330" height="360" as="geometry" />
        </mxCell>
        <mxCell id="SRyWoY2yss76VLXDOrAd-38" value="" style="rounded=0;whiteSpace=wrap;html=1;" vertex="1" parent="1">
          <mxGeometry x="427.5" y="3436.94" width="330" height="360" as="geometry" />
        </mxCell>
        <mxCell id="SRyWoY2yss76VLXDOrAd-39" value="Text" style="text;html=1;strokeColor=none;fillColor=none;align=center;verticalAlign=middle;whiteSpace=wrap;rounded=0;fontStyle=1;fontSize=15;" vertex="1" parent="1">
          <mxGeometry x="105.5" y="3806.94" width="60" height="30" as="geometry" />
        </mxCell>
        <mxCell id="SRyWoY2yss76VLXDOrAd-40" value="Text" style="text;html=1;strokeColor=none;fillColor=none;align=center;verticalAlign=middle;whiteSpace=wrap;rounded=0;fontStyle=1;fontSize=15;" vertex="1" parent="1">
          <mxGeometry x="447" y="3806.94" width="60" height="30" as="geometry" />
        </mxCell>
        <mxCell id="SRyWoY2yss76VLXDOrAd-41" value="" style="rounded=0;whiteSpace=wrap;html=1;" vertex="1" parent="1">
          <mxGeometry x="75.5" y="3876.94" width="330" height="360" as="geometry" />
        </mxCell>
        <mxCell id="SRyWoY2yss76VLXDOrAd-42" value="Text" style="text;html=1;strokeColor=none;fillColor=none;align=center;verticalAlign=middle;whiteSpace=wrap;rounded=0;fontStyle=1;fontSize=15;" vertex="1" parent="1">
          <mxGeometry x="105.5" y="4246.94" width="60" height="30" as="geometry" />
        </mxCell>
        <mxCell id="SRyWoY2yss76VLXDOrAd-43" value="&lt;font style=&quot;font-size: 24px;&quot;&gt;Luxury&lt;/font&gt;" style="text;html=1;strokeColor=none;fillColor=none;align=center;verticalAlign=middle;whiteSpace=wrap;rounded=0;fontSize=35;fontStyle=1;fontFamily=Times New Roman;" vertex="1" parent="1">
          <mxGeometry x="169.5" y="4356.94" width="110" height="30" as="geometry" />
        </mxCell>
        <mxCell id="SRyWoY2yss76VLXDOrAd-44" value="Cửa hàng&amp;nbsp;" style="text;html=1;strokeColor=none;fillColor=none;align=center;verticalAlign=middle;whiteSpace=wrap;rounded=0;fontSize=14;fontStyle=1" vertex="1" parent="1">
          <mxGeometry x="481.5" y="4336.94" width="188" height="30" as="geometry" />
        </mxCell>
        <mxCell id="SRyWoY2yss76VLXDOrAd-45" value="Địa chỉ: Cầu Giấy, Hà Nội" style="text;html=1;align=center;verticalAlign=middle;resizable=0;points=[];autosize=1;strokeColor=none;fillColor=none;fontSize=12;" vertex="1" parent="1">
          <mxGeometry x="493" y="4366.94" width="165" height="33" as="geometry" />
        </mxCell>
        <mxCell id="SRyWoY2yss76VLXDOrAd-46" value="Sdt: 0123456789" style="text;html=1;strokeColor=none;fillColor=none;align=center;verticalAlign=middle;whiteSpace=wrap;rounded=0;fontSize=13;" vertex="1" parent="1">
          <mxGeometry x="511.5" y="4399.94" width="127" height="15" as="geometry" />
        </mxCell>
        <mxCell id="SRyWoY2yss76VLXDOrAd-47" value="Luxury" style="text;html=1;strokeColor=none;fillColor=none;align=center;verticalAlign=middle;whiteSpace=wrap;rounded=0;fontSize=35;fontStyle=1;fontFamily=Times New Roman;" vertex="1" parent="1">
          <mxGeometry x="153.5" width="110" height="53.12" as="geometry" />
        </mxCell>
        <mxCell id="SRyWoY2yss76VLXDOrAd-48" value="" style="rounded=1;whiteSpace=wrap;html=1;" vertex="1" parent="1">
          <mxGeometry x="630" y="10" width="60" height="50" as="geometry" />
        </mxCell>
        <mxCell id="SRyWoY2yss76VLXDOrAd-49" value="" style="line;strokeWidth=2;html=1;" vertex="1" parent="1">
          <mxGeometry x="640" y="22.56" width="40" height="8" as="geometry" />
        </mxCell>
        <mxCell id="SRyWoY2yss76VLXDOrAd-50" value="" style="line;strokeWidth=2;html=1;" vertex="1" parent="1">
          <mxGeometry x="640" y="31.000000000000004" width="40" height="8" as="geometry" />
        </mxCell>
        <mxCell id="SRyWoY2yss76VLXDOrAd-51" value="" style="line;strokeWidth=2;html=1;" vertex="1" parent="1">
          <mxGeometry x="640" y="39" width="40" height="9" as="geometry" />
        </mxCell>
      </root>
    </mxGraphModel>
  </diagram>
</mxfile>
